<mxfile host="app.diagrams.net" modified="2023-08-03T07:39:20.547Z" agent="Mozilla/5.0 (Windows NT 10.0; Win64; x64) AppleWebKit/537.36 (KHTML, like Gecko) Chrome/115.0.0.0 Safari/537.36 Edg/115.0.1901.188" etag="TEwYKGL6-9hMjoDK2CKv" version="21.6.6" type="github">
  <diagram name="第 1 页" id="cRqL5wL2QrjcG-yW-abp">
    <mxGraphModel dx="1379" dy="876" grid="1" gridSize="10" guides="1" tooltips="1" connect="1" arrows="1" fold="1" page="1" pageScale="1" pageWidth="827" pageHeight="1169" math="0" shadow="0">
      <root>
        <mxCell id="0" />
        <mxCell id="1" parent="0" />
        <mxCell id="9b4i9IM0yIl_E8x_9MC1-3" style="edgeStyle=orthogonalEdgeStyle;rounded=0;orthogonalLoop=1;jettySize=auto;html=1;" parent="1" source="9b4i9IM0yIl_E8x_9MC1-1" target="9b4i9IM0yIl_E8x_9MC1-2" edge="1">
          <mxGeometry relative="1" as="geometry" />
        </mxCell>
        <mxCell id="9b4i9IM0yIl_E8x_9MC1-1" value="商品推荐" style="rounded=1;whiteSpace=wrap;html=1;" parent="1" vertex="1">
          <mxGeometry x="334" y="360" width="80" height="40" as="geometry" />
        </mxCell>
        <mxCell id="9b4i9IM0yIl_E8x_9MC1-22" style="edgeStyle=orthogonalEdgeStyle;rounded=0;orthogonalLoop=1;jettySize=auto;html=1;entryX=0.5;entryY=0;entryDx=0;entryDy=0;" parent="1" source="9b4i9IM0yIl_E8x_9MC1-2" target="9b4i9IM0yIl_E8x_9MC1-21" edge="1">
          <mxGeometry relative="1" as="geometry" />
        </mxCell>
        <mxCell id="9b4i9IM0yIl_E8x_9MC1-2" value="查询券模板" style="rounded=1;whiteSpace=wrap;html=1;" parent="1" vertex="1">
          <mxGeometry x="334" y="440" width="80" height="40" as="geometry" />
        </mxCell>
        <mxCell id="9b4i9IM0yIl_E8x_9MC1-8" value="" style="edgeStyle=orthogonalEdgeStyle;rounded=0;orthogonalLoop=1;jettySize=auto;html=1;" parent="1" source="9b4i9IM0yIl_E8x_9MC1-6" target="9b4i9IM0yIl_E8x_9MC1-7" edge="1">
          <mxGeometry relative="1" as="geometry" />
        </mxCell>
        <mxCell id="9b4i9IM0yIl_E8x_9MC1-6" value="查询优惠券列表" style="rounded=1;whiteSpace=wrap;html=1;" parent="1" vertex="1">
          <mxGeometry x="334" y="60" width="80" height="40" as="geometry" />
        </mxCell>
        <mxCell id="9b4i9IM0yIl_E8x_9MC1-10" style="edgeStyle=orthogonalEdgeStyle;rounded=0;orthogonalLoop=1;jettySize=auto;html=1;entryX=0;entryY=0.5;entryDx=0;entryDy=0;" parent="1" source="9b4i9IM0yIl_E8x_9MC1-7" target="9b4i9IM0yIl_E8x_9MC1-9" edge="1">
          <mxGeometry relative="1" as="geometry" />
        </mxCell>
        <mxCell id="9b4i9IM0yIl_E8x_9MC1-11" value="是" style="edgeLabel;html=1;align=center;verticalAlign=middle;resizable=0;points=[];" parent="9b4i9IM0yIl_E8x_9MC1-10" vertex="1" connectable="0">
          <mxGeometry x="-0.425" y="-1" relative="1" as="geometry">
            <mxPoint x="7" y="-1" as="offset" />
          </mxGeometry>
        </mxCell>
        <mxCell id="9b4i9IM0yIl_E8x_9MC1-18" style="edgeStyle=orthogonalEdgeStyle;rounded=0;orthogonalLoop=1;jettySize=auto;html=1;entryX=0.5;entryY=0;entryDx=0;entryDy=0;" parent="1" source="9b4i9IM0yIl_E8x_9MC1-7" target="9b4i9IM0yIl_E8x_9MC1-12" edge="1">
          <mxGeometry relative="1" as="geometry" />
        </mxCell>
        <mxCell id="9b4i9IM0yIl_E8x_9MC1-7" value="是否配置跳转链接" style="rhombus;whiteSpace=wrap;html=1;rounded=1;" parent="1" vertex="1">
          <mxGeometry x="344" y="150" width="60" height="60" as="geometry" />
        </mxCell>
        <mxCell id="9b4i9IM0yIl_E8x_9MC1-9" value="跳转链接" style="rounded=1;whiteSpace=wrap;html=1;" parent="1" vertex="1">
          <mxGeometry x="484" y="160" width="80" height="40" as="geometry" />
        </mxCell>
        <mxCell id="9b4i9IM0yIl_E8x_9MC1-14" style="edgeStyle=orthogonalEdgeStyle;rounded=0;orthogonalLoop=1;jettySize=auto;html=1;exitX=1;exitY=0.5;exitDx=0;exitDy=0;" parent="1" source="9b4i9IM0yIl_E8x_9MC1-12" target="9b4i9IM0yIl_E8x_9MC1-13" edge="1">
          <mxGeometry relative="1" as="geometry" />
        </mxCell>
        <mxCell id="9b4i9IM0yIl_E8x_9MC1-17" value="分期券" style="edgeLabel;html=1;align=center;verticalAlign=middle;resizable=0;points=[];" parent="9b4i9IM0yIl_E8x_9MC1-14" vertex="1" connectable="0">
          <mxGeometry x="-0.2" relative="1" as="geometry">
            <mxPoint as="offset" />
          </mxGeometry>
        </mxCell>
        <mxCell id="9b4i9IM0yIl_E8x_9MC1-19" style="edgeStyle=orthogonalEdgeStyle;rounded=0;orthogonalLoop=1;jettySize=auto;html=1;exitX=0.5;exitY=1;exitDx=0;exitDy=0;entryX=0.5;entryY=0;entryDx=0;entryDy=0;" parent="1" source="9b4i9IM0yIl_E8x_9MC1-12" target="9b4i9IM0yIl_E8x_9MC1-1" edge="1">
          <mxGeometry relative="1" as="geometry" />
        </mxCell>
        <mxCell id="9b4i9IM0yIl_E8x_9MC1-20" value="满减券" style="edgeLabel;html=1;align=center;verticalAlign=middle;resizable=0;points=[];" parent="9b4i9IM0yIl_E8x_9MC1-19" vertex="1" connectable="0">
          <mxGeometry x="-0.6333" y="-3" relative="1" as="geometry">
            <mxPoint x="3" y="9" as="offset" />
          </mxGeometry>
        </mxCell>
        <mxCell id="9b4i9IM0yIl_E8x_9MC1-12" value="判断券类型" style="rhombus;whiteSpace=wrap;html=1;rounded=1;" parent="1" vertex="1">
          <mxGeometry x="344" y="240" width="60" height="60" as="geometry" />
        </mxCell>
        <mxCell id="9b4i9IM0yIl_E8x_9MC1-13" value="前端兜底，跳转商城首页" style="rounded=1;whiteSpace=wrap;html=1;" parent="1" vertex="1">
          <mxGeometry x="484" y="250" width="80" height="40" as="geometry" />
        </mxCell>
        <mxCell id="9b4i9IM0yIl_E8x_9MC1-24" style="edgeStyle=orthogonalEdgeStyle;rounded=0;orthogonalLoop=1;jettySize=auto;html=1;entryX=0;entryY=0.5;entryDx=0;entryDy=0;" parent="1" source="9b4i9IM0yIl_E8x_9MC1-21" target="9b4i9IM0yIl_E8x_9MC1-23" edge="1">
          <mxGeometry relative="1" as="geometry" />
        </mxCell>
        <mxCell id="9b4i9IM0yIl_E8x_9MC1-25" value="Text" style="edgeLabel;html=1;align=center;verticalAlign=middle;resizable=0;points=[];" parent="9b4i9IM0yIl_E8x_9MC1-24" vertex="1" connectable="0">
          <mxGeometry x="-0.4" y="-5" relative="1" as="geometry">
            <mxPoint x="6" y="-5" as="offset" />
          </mxGeometry>
        </mxCell>
        <mxCell id="9b4i9IM0yIl_E8x_9MC1-26" value="不限" style="edgeLabel;html=1;align=center;verticalAlign=middle;resizable=0;points=[];" parent="9b4i9IM0yIl_E8x_9MC1-24" vertex="1" connectable="0">
          <mxGeometry x="-0.15" y="-1" relative="1" as="geometry">
            <mxPoint as="offset" />
          </mxGeometry>
        </mxCell>
        <mxCell id="9b4i9IM0yIl_E8x_9MC1-29" style="rounded=0;orthogonalLoop=1;jettySize=auto;html=1;entryX=0.467;entryY=0.117;entryDx=0;entryDy=0;entryPerimeter=0;" parent="1" source="9b4i9IM0yIl_E8x_9MC1-21" target="9b4i9IM0yIl_E8x_9MC1-33" edge="1">
          <mxGeometry relative="1" as="geometry">
            <mxPoint x="318" y="630" as="targetPoint" />
          </mxGeometry>
        </mxCell>
        <mxCell id="9b4i9IM0yIl_E8x_9MC1-31" value="按商品" style="edgeLabel;html=1;align=center;verticalAlign=middle;resizable=0;points=[];" parent="9b4i9IM0yIl_E8x_9MC1-29" vertex="1" connectable="0">
          <mxGeometry x="0.0743" relative="1" as="geometry">
            <mxPoint as="offset" />
          </mxGeometry>
        </mxCell>
        <mxCell id="9b4i9IM0yIl_E8x_9MC1-30" style="rounded=0;orthogonalLoop=1;jettySize=auto;html=1;entryX=0.482;entryY=0.117;entryDx=0;entryDy=0;entryPerimeter=0;" parent="1" source="9b4i9IM0yIl_E8x_9MC1-21" target="9b4i9IM0yIl_E8x_9MC1-34" edge="1">
          <mxGeometry relative="1" as="geometry">
            <mxPoint x="446" y="630" as="targetPoint" />
          </mxGeometry>
        </mxCell>
        <mxCell id="9b4i9IM0yIl_E8x_9MC1-32" value="按品类" style="edgeLabel;html=1;align=center;verticalAlign=middle;resizable=0;points=[];" parent="9b4i9IM0yIl_E8x_9MC1-30" vertex="1" connectable="0">
          <mxGeometry x="-0.0187" y="2" relative="1" as="geometry">
            <mxPoint x="-4" y="4" as="offset" />
          </mxGeometry>
        </mxCell>
        <mxCell id="9b4i9IM0yIl_E8x_9MC1-21" value="适用维度" style="rhombus;whiteSpace=wrap;html=1;rounded=1;" parent="1" vertex="1">
          <mxGeometry x="344" y="520" width="60" height="60" as="geometry" />
        </mxCell>
        <mxCell id="9b4i9IM0yIl_E8x_9MC1-23" value="返回空" style="rounded=1;whiteSpace=wrap;html=1;" parent="1" vertex="1">
          <mxGeometry x="484" y="530" width="80" height="40" as="geometry" />
        </mxCell>
        <mxCell id="9b4i9IM0yIl_E8x_9MC1-37" style="edgeStyle=orthogonalEdgeStyle;rounded=0;orthogonalLoop=1;jettySize=auto;html=1;" parent="1" source="9b4i9IM0yIl_E8x_9MC1-33" target="9b4i9IM0yIl_E8x_9MC1-36" edge="1">
          <mxGeometry relative="1" as="geometry" />
        </mxCell>
        <mxCell id="9b4i9IM0yIl_E8x_9MC1-38" value="是" style="edgeLabel;html=1;align=center;verticalAlign=middle;resizable=0;points=[];" parent="9b4i9IM0yIl_E8x_9MC1-37" vertex="1" connectable="0">
          <mxGeometry x="-0.2" y="3" relative="1" as="geometry">
            <mxPoint y="-3" as="offset" />
          </mxGeometry>
        </mxCell>
        <mxCell id="9b4i9IM0yIl_E8x_9MC1-40" style="edgeStyle=orthogonalEdgeStyle;rounded=0;orthogonalLoop=1;jettySize=auto;html=1;entryX=0;entryY=0.5;entryDx=0;entryDy=0;exitX=0.5;exitY=1;exitDx=0;exitDy=0;" parent="1" source="9b4i9IM0yIl_E8x_9MC1-33" target="9b4i9IM0yIl_E8x_9MC1-39" edge="1">
          <mxGeometry relative="1" as="geometry" />
        </mxCell>
        <mxCell id="9b4i9IM0yIl_E8x_9MC1-33" value="是否单一商品" style="rhombus;whiteSpace=wrap;html=1;rounded=1;" parent="1" vertex="1">
          <mxGeometry x="260" y="630" width="60" height="60" as="geometry" />
        </mxCell>
        <mxCell id="9b4i9IM0yIl_E8x_9MC1-51" style="edgeStyle=orthogonalEdgeStyle;rounded=0;orthogonalLoop=1;jettySize=auto;html=1;" parent="1" source="9b4i9IM0yIl_E8x_9MC1-34" target="9b4i9IM0yIl_E8x_9MC1-49" edge="1">
          <mxGeometry relative="1" as="geometry" />
        </mxCell>
        <mxCell id="9b4i9IM0yIl_E8x_9MC1-53" value="是" style="edgeLabel;html=1;align=center;verticalAlign=middle;resizable=0;points=[];" parent="9b4i9IM0yIl_E8x_9MC1-51" vertex="1" connectable="0">
          <mxGeometry x="-0.1818" y="1" relative="1" as="geometry">
            <mxPoint as="offset" />
          </mxGeometry>
        </mxCell>
        <mxCell id="9b4i9IM0yIl_E8x_9MC1-56" style="edgeStyle=orthogonalEdgeStyle;rounded=0;orthogonalLoop=1;jettySize=auto;html=1;entryX=1;entryY=0.5;entryDx=0;entryDy=0;exitX=0.5;exitY=1;exitDx=0;exitDy=0;" parent="1" source="9b4i9IM0yIl_E8x_9MC1-34" target="9b4i9IM0yIl_E8x_9MC1-39" edge="1">
          <mxGeometry relative="1" as="geometry" />
        </mxCell>
        <mxCell id="9b4i9IM0yIl_E8x_9MC1-34" value="是否单一品类" style="rhombus;whiteSpace=wrap;html=1;rounded=1;" parent="1" vertex="1">
          <mxGeometry x="440" y="630" width="56" height="60" as="geometry" />
        </mxCell>
        <mxCell id="9b4i9IM0yIl_E8x_9MC1-36" value="返回商品spu" style="rounded=1;whiteSpace=wrap;html=1;" parent="1" vertex="1">
          <mxGeometry x="120" y="640" width="80" height="40" as="geometry" />
        </mxCell>
        <mxCell id="9b4i9IM0yIl_E8x_9MC1-42" style="edgeStyle=orthogonalEdgeStyle;rounded=0;orthogonalLoop=1;jettySize=auto;html=1;exitX=0.5;exitY=1;exitDx=0;exitDy=0;" parent="1" source="9b4i9IM0yIl_E8x_9MC1-39" target="9b4i9IM0yIl_E8x_9MC1-41" edge="1">
          <mxGeometry relative="1" as="geometry" />
        </mxCell>
        <mxCell id="9b4i9IM0yIl_E8x_9MC1-39" value="查询spu价格" style="rounded=1;whiteSpace=wrap;html=1;" parent="1" vertex="1">
          <mxGeometry x="334" y="720" width="80" height="40" as="geometry" />
        </mxCell>
        <mxCell id="9b4i9IM0yIl_E8x_9MC1-46" style="edgeStyle=orthogonalEdgeStyle;rounded=0;orthogonalLoop=1;jettySize=auto;html=1;entryX=0.5;entryY=0;entryDx=0;entryDy=0;exitX=0.5;exitY=1;exitDx=0;exitDy=0;" parent="1" source="9b4i9IM0yIl_E8x_9MC1-41" target="9b4i9IM0yIl_E8x_9MC1-45" edge="1">
          <mxGeometry relative="1" as="geometry" />
        </mxCell>
        <mxCell id="9b4i9IM0yIl_E8x_9MC1-41" value="查询spu近30天销量" style="rounded=1;whiteSpace=wrap;html=1;" parent="1" vertex="1">
          <mxGeometry x="334" y="790" width="80" height="40" as="geometry" />
        </mxCell>
        <mxCell id="9b4i9IM0yIl_E8x_9MC1-48" style="edgeStyle=orthogonalEdgeStyle;rounded=0;orthogonalLoop=1;jettySize=auto;html=1;exitX=0.5;exitY=1;exitDx=0;exitDy=0;" parent="1" source="9b4i9IM0yIl_E8x_9MC1-45" target="9b4i9IM0yIl_E8x_9MC1-47" edge="1">
          <mxGeometry relative="1" as="geometry" />
        </mxCell>
        <mxCell id="9b4i9IM0yIl_E8x_9MC1-45" value="查询默品类排序" style="rounded=1;whiteSpace=wrap;html=1;" parent="1" vertex="1">
          <mxGeometry x="334" y="860" width="80" height="40" as="geometry" />
        </mxCell>
        <mxCell id="9b4i9IM0yIl_E8x_9MC1-60" style="edgeStyle=orthogonalEdgeStyle;rounded=0;orthogonalLoop=1;jettySize=auto;html=1;" parent="1" source="9b4i9IM0yIl_E8x_9MC1-47" target="9b4i9IM0yIl_E8x_9MC1-59" edge="1">
          <mxGeometry relative="1" as="geometry" />
        </mxCell>
        <mxCell id="9b4i9IM0yIl_E8x_9MC1-47" value="排序" style="rounded=1;whiteSpace=wrap;html=1;" parent="1" vertex="1">
          <mxGeometry x="334" y="930" width="80" height="40" as="geometry" />
        </mxCell>
        <mxCell id="9b4i9IM0yIl_E8x_9MC1-52" style="edgeStyle=orthogonalEdgeStyle;rounded=0;orthogonalLoop=1;jettySize=auto;html=1;entryX=0;entryY=0.5;entryDx=0;entryDy=0;" parent="1" source="9b4i9IM0yIl_E8x_9MC1-49" target="9b4i9IM0yIl_E8x_9MC1-50" edge="1">
          <mxGeometry relative="1" as="geometry" />
        </mxCell>
        <mxCell id="9b4i9IM0yIl_E8x_9MC1-49" value="查询品类下spu价格" style="rounded=1;whiteSpace=wrap;html=1;" parent="1" vertex="1">
          <mxGeometry x="560" y="640" width="80" height="40" as="geometry" />
        </mxCell>
        <mxCell id="9b4i9IM0yIl_E8x_9MC1-54" style="edgeStyle=orthogonalEdgeStyle;rounded=0;orthogonalLoop=1;jettySize=auto;html=1;entryX=1;entryY=0.5;entryDx=0;entryDy=0;exitX=0.5;exitY=1;exitDx=0;exitDy=0;" parent="1" source="9b4i9IM0yIl_E8x_9MC1-50" target="9b4i9IM0yIl_E8x_9MC1-47" edge="1">
          <mxGeometry relative="1" as="geometry" />
        </mxCell>
        <mxCell id="9b4i9IM0yIl_E8x_9MC1-50" value="查询spu近30天销量" style="rounded=1;whiteSpace=wrap;html=1;" parent="1" vertex="1">
          <mxGeometry x="690" y="640" width="80" height="40" as="geometry" />
        </mxCell>
        <mxCell id="9b4i9IM0yIl_E8x_9MC1-59" value="返回sku集合" style="rounded=1;whiteSpace=wrap;html=1;" parent="1" vertex="1">
          <mxGeometry x="334" y="1010" width="80" height="40" as="geometry" />
        </mxCell>
        <mxCell id="yh_svcMYM_elY1nUcCpf-2" value="ES" style="strokeWidth=2;html=1;shape=mxgraph.flowchart.document2;whiteSpace=wrap;size=0.25;" vertex="1" parent="1">
          <mxGeometry x="434.65999999999997" y="790" width="66.67" height="40" as="geometry" />
        </mxCell>
        <mxCell id="yh_svcMYM_elY1nUcCpf-3" value="ES" style="strokeWidth=2;html=1;shape=mxgraph.flowchart.document2;whiteSpace=wrap;size=0.25;" vertex="1" parent="1">
          <mxGeometry x="566.67" y="690" width="66.67" height="40" as="geometry" />
        </mxCell>
        <mxCell id="yh_svcMYM_elY1nUcCpf-4" value="配置中心" style="strokeWidth=2;html=1;shape=mxgraph.flowchart.document2;whiteSpace=wrap;size=0.25;" vertex="1" parent="1">
          <mxGeometry x="434.65999999999997" y="860" width="66.67" height="40" as="geometry" />
        </mxCell>
        <mxCell id="yh_svcMYM_elY1nUcCpf-5" value="ES" style="strokeWidth=2;html=1;shape=mxgraph.flowchart.document2;whiteSpace=wrap;size=0.25;" vertex="1" parent="1">
          <mxGeometry x="344" y="670" width="66.67" height="40" as="geometry" />
        </mxCell>
        <mxCell id="yh_svcMYM_elY1nUcCpf-6" value="ES" style="strokeWidth=2;html=1;shape=mxgraph.flowchart.document2;whiteSpace=wrap;size=0.25;" vertex="1" parent="1">
          <mxGeometry x="696.66" y="585" width="66.67" height="40" as="geometry" />
        </mxCell>
      </root>
    </mxGraphModel>
  </diagram>
</mxfile>
